<svg xmlns="http://www.w3.org/2000/svg" viewBox="0 0 600 750"><defs><linearGradient id="g" x1="0" y1="0" x2="1" y2="1"><stop offset="0" stop-color="#f3dea0"/><stop offset=".45" stop-color="#c79a45"/><stop offset=".7" stop-color="#8a6420"/><stop offset="1" stop-color="#e8c77a"/></linearGradient>
<radialGradient id="s" cx=".5" cy=".5" r=".5"><stop offset="0" stop-color="#000" stop-opacity=".18"/><stop offset="1" stop-color="#000" stop-opacity="0"/></radialGradient><radialGradient id="gem" cx=".35" cy=".3" r=".8"><stop offset="0" stop-color="#fff" stop-opacity=".95"/><stop offset=".25" stop-color="#0f6b4f"/><stop offset="1" stop-color="#0f6b4f" stop-opacity=".85"/></radialGradient></defs><rect width="600" height="750" fill="#efe8dc"/><ellipse cx="220" cy="640" rx="60" ry="9.6" fill="url(#s)"/><circle cx="220" cy="210" r="16" fill="none" stroke="url(#g)" stroke-width="6"/><path d="M220 226 V300" stroke="url(#g)" stroke-width="5"/>
    <path d="M170 330 Q220 280 270 330 L250 470 Q220 540 190 470 Z" fill="none" stroke="url(#g)" stroke-width="8"/><circle cx="220" cy="420" r="26" fill="url(#gem)"/>
    <circle cx="184" cy="490.6" r="7" fill="#f4efe6" stroke="#c9b99a"/><circle cx="208" cy="500.2" r="7" fill="#f4efe6" stroke="#c9b99a"/><circle cx="232" cy="500.2" r="7" fill="#f4efe6" stroke="#c9b99a"/><circle cx="256" cy="490.6" r="7" fill="#f4efe6" stroke="#c9b99a"/><ellipse cx="380" cy="640" rx="60" ry="9.6" fill="url(#s)"/><circle cx="380" cy="210" r="16" fill="none" stroke="url(#g)" stroke-width="6"/><path d="M380 226 V300" stroke="url(#g)" stroke-width="5"/>
    <path d="M330 330 Q380 280 430 330 L410 470 Q380 540 350 470 Z" fill="none" stroke="url(#g)" stroke-width="8"/><circle cx="380" cy="420" r="26" fill="url(#gem)"/>
    <circle cx="344" cy="490.6" r="7" fill="#f4efe6" stroke="#c9b99a"/><circle cx="368" cy="500.2" r="7" fill="#f4efe6" stroke="#c9b99a"/><circle cx="392" cy="500.2" r="7" fill="#f4efe6" stroke="#c9b99a"/><circle cx="416" cy="490.6" r="7" fill="#f4efe6" stroke="#c9b99a"/></svg>